Coordinates
version=1
nRows=29
nColumns=33
inDegrees=yes

Units are S.I. units (second, meters, Newtons, ...)
Angles are in degrees.

endheader
time	ground_thorax_rot_x	ground_thorax_rot_y	ground_thorax_rot_z	ground_thorax_tx	ground_thorax_ty	ground_thorax_tz	clav_prot_r	clav_elev_r	scapula_abduction_r	scapula_elevation_r	scapula_upward_rot_r	scapula_winging_r	shoulder_elv_r	plane_of_elev_r	axial_rot_r	elbow_flexion_r	pro_sup_r	wrist_flex_r	wrist_dev_r	clav_prot_l	clav_elev_l	scapula_abduction_l	scapula_elevation_l	scapula_upward_rot_l	scapula_winging_l	shoulder_elv_l	plane_of_elev_l	axial_rot_l	elbow_flexion_l	pro_sup_l	wrist_flex_l	wrist_dev_l	
3.6200	-0.689832	3.456924	13.072253	-0.116970	1.027677	0.016250	6.789917	-12.161094	10.269387	-3.183304	-4.078252	0.066708	-52.246567	-75.616010	86.098795	-69.834167	-142.755403	52.085298	-24.997652	10.851879	-1.017577	-14.709673	-22.636801	-39.058640	-1.035399	58.850040	-34.848289	-2.487717	61.841395	26.995664	-6.975413	-24.999990	
3.6300	-0.711819	3.527785	13.078222	-0.116955	1.027679	0.016177	6.759422	-12.154912	10.251251	-3.214027	-3.995880	0.067148	-51.863333	-75.604912	86.352030	-70.539751	-143.289602	51.772641	-24.995796	10.859096	-1.056709	-14.722810	-22.592052	-39.046095	-1.021737	58.975648	-34.756145	-2.214492	62.351981	26.785401	-7.148121	-24.999982	
3.6400	-0.727946	3.594155	13.088405	-0.116963	1.027696	0.016087	6.743454	-12.169014	10.250852	-3.255046	-3.932586	0.070341	-51.405023	-75.619226	86.684867	-71.263409	-143.937105	51.340110	-24.992462	10.873998	-1.117895	-14.756056	-22.533650	-39.051745	-0.999379	59.116132	-34.650127	-1.934541	62.873223	26.535976	-7.328017	-24.999968	
3.6500	-0.747051	3.659663	13.099085	-0.116981	1.027710	0.015991	6.740175	-12.191989	10.274510	-3.305997	-3.864737	0.068249	-50.874696	-75.636427	87.101360	-71.988814	-144.642130	50.792696	-24.986518	10.896597	-1.178342	-14.803324	-22.475857	-39.058239	-0.971074	59.272981	-34.520411	-1.659608	63.399921	26.251422	-7.475356	-24.999942	
3.6600	-0.768736	3.724615	13.110636	-0.117000	1.027722	0.015890	6.748252	-12.221690	10.322852	-3.367969	-3.785204	0.059443	-50.287297	-75.651137	87.580358	-72.708196	-145.373732	50.154368	-24.975794	10.926190	-1.234889	-14.861645	-22.419180	-39.059888	-0.937549	59.443184	-34.368083	-1.392911	63.932116	25.939599	-7.578301	-24.999896	
3.6700	-0.797971	3.792566	13.119877	-0.117008	1.027722	0.015794	6.766754	-12.250246	10.404754	-3.444698	-3.668442	0.036209	-49.683519	-75.644878	88.079323	-73.405844	-146.043976	49.477719	-24.956795	10.961764	-1.272061	-14.922602	-22.368753	-39.034961	-0.900681	59.624279	-34.191494	-1.144490	64.469082	25.619223	-7.596154	-24.999814	
3.6800	-0.832266	3.863431	13.127246	-0.116996	1.027715	0.015706	6.794876	-12.279326	10.521589	-3.540329	-3.508380	-0.001435	-49.101936	-75.615424	88.546076	-74.074798	-146.611252	48.813325	-24.922177	11.001793	-1.294292	-14.982167	-22.317075	-38.976510	-0.860240	59.812254	-33.998592	-0.912588	65.013845	25.306253	-7.519852	-24.999667	
3.6900	-0.862292	3.930528	13.134696	-0.116988	1.027705	0.015628	6.845302	-12.301206	10.686061	-3.638359	-3.325769	-0.060522	-48.472976	-75.567241	89.057109	-74.736205	-147.159419	48.008463	-24.861797	11.048132	-1.324630	-15.050987	-22.252242	-38.907592	-0.812740	60.010333	-33.794890	-0.675759	65.572197	24.947695	-7.281605	-24.999404	
3.7000	-0.883002	3.990270	13.146595	-0.116985	1.027707	0.015559	6.917103	-12.323551	10.890460	-3.739143	-3.136222	-0.134258	-47.797850	-75.514186	89.601005	-75.395719	-147.711201	47.075088	-24.749091	11.099804	-1.375841	-15.130639	-22.165814	-38.836919	-0.757269	60.217358	-33.585173	-0.428858	66.138730	24.544354	-6.892820	-24.998932	
3.7100	-0.895682	4.044413	13.160262	-0.116988	1.027718	0.015502	7.009664	-12.345348	11.132768	-3.840771	-2.941935	-0.222229	-47.061172	-75.455476	90.191934	-76.052326	-148.273969	46.003803	-24.559892	11.156141	-1.444740	-15.219256	-22.060169	-38.762759	-0.694857	60.435956	-33.362038	-0.172210	66.707497	24.092256	-6.340840	-24.998087	
3.7200	-0.905572	4.092040	13.172969	-0.116985	1.027728	0.015462	7.118435	-12.361941	11.406755	-3.940718	-2.738965	-0.324608	-46.240538	-75.382450	90.840703	-76.706375	-148.829722	44.790296	-24.187167	11.212655	-1.519231	-15.306135	-21.944134	-38.678049	-0.630703	60.670189	-33.116563	0.095498	67.268696	23.583844	-5.565096	-24.996575	
3.7300	-0.910564	4.131662	13.184637	-0.116986	1.027739	0.015433	7.244247	-12.372373	11.707027	-4.031202	-2.543151	-0.439055	-45.281964	-75.302149	91.605986	-77.362100	-149.444102	43.388631	-23.627443	11.268981	-1.604099	-15.393727	-21.818158	-38.593664	-0.565229	60.922120	-32.840937	0.379421	67.813419	23.005793	-4.571679	-24.993863	
3.7400	-0.914548	4.160082	13.194063	-0.116972	1.027750	0.015418	7.380773	-12.379888	12.025049	-4.117696	-2.349210	-0.561651	-44.183985	-75.211139	92.476045	-78.009252	-150.095843	41.867653	-22.807521	11.319914	-1.690461	-15.469692	-21.687081	-38.500548	-0.503575	61.190771	-32.531974	0.678825	68.327794	22.379786	-3.335659	-24.989011	
3.7500	-0.918707	4.180439	13.198936	-0.116938	1.027762	0.015414	7.522314	-12.391181	12.350197	-4.205590	-2.159431	-0.685376	-42.953993	-75.112071	93.444038	-78.632461	-150.789162	40.333208	-21.786048	11.364213	-1.776928	-15.529652	-21.548196	-38.389825	-0.446326	61.472870	-32.187951	0.988148	68.798729	21.754738	-1.922275	-24.980302	
3.7600	-0.923370	4.192647	13.203346	-0.116887	1.027778	0.015424	7.668475	-12.406994	12.684258	-4.297803	-1.968404	-0.810905	-41.625375	-75.004007	94.486693	-79.226131	-151.517450	38.793757	-20.594681	11.405750	-1.867446	-15.581015	-21.397688	-38.262037	-0.389759	61.763195	-31.814068	1.299607	69.213525	21.143996	-0.373512	-24.964754	
3.7700	-0.924058	4.201862	13.203931	-0.116827	1.027803	0.015450	7.817823	-12.423487	13.031449	-4.396959	-1.761485	-0.941654	-40.251559	-74.884175	95.567463	-79.784524	-152.289168	37.253995	-19.324151	11.452859	-1.973294	-15.638813	-21.222081	-38.113106	-0.325128	62.048647	-31.413531	1.608728	69.560146	20.584424	1.205338	-24.936758	
3.7800	-0.925319	4.212624	13.204710	-0.116760	1.027840	0.015487	7.969671	-12.449740	13.397588	-4.517794	-1.523585	-1.076402	-38.927877	-74.751988	96.599676	-80.288040	-153.050332	35.759172	-18.036855	11.512393	-2.092006	-15.714519	-21.021989	-37.940050	-0.247052	62.322588	-30.990333	1.896915	69.831630	20.097093	2.724731	-24.887012	
3.7900	-0.927168	4.225495	13.196958	-0.116687	1.027879	0.015536	8.127651	-12.477819	13.793006	-4.656924	-1.245187	-1.222928	-37.649238	-74.587752	97.582848	-80.737543	-153.807798	34.267579	-16.706655	11.585954	-2.220404	-15.810361	-20.799519	-37.740991	-0.154897	62.580952	-30.535794	2.177515	70.023455	19.691382	4.208103	-24.796780	
3.8000	-0.937173	4.240764	13.187905	-0.116619	1.027929	0.015590	8.297375	-12.520798	14.225307	-4.823963	-0.931303	-1.377978	-36.448456	-74.387480	98.484816	-81.110925	-154.526291	32.783284	-15.395824	11.676879	-2.357686	-15.935077	-20.560739	-37.527545	-0.046849	62.829938	-30.056022	2.440287	70.141585	19.347095	5.631417	-24.638278	
3.8100	-0.954043	4.253413	13.169488	-0.116555	1.027966	0.015644	8.483116	-12.561595	14.701808	-5.003034	-0.581664	-1.552082	-35.245435	-74.138214	99.387917	-81.414912	-155.254495	31.217778	-14.024073	11.782608	-2.504349	-16.086212	-20.310031	-37.309702	0.073937	63.073075	-29.546563	2.714196	70.206523	19.041744	7.102152	-24.345622	
3.8200	-0.984822	4.262447	13.156230	-0.116503	1.027997	0.015683	8.688345	-12.620579	15.212517	-5.197956	-0.231557	-1.731431	-34.006590	-73.850017	100.319556	-81.621213	-155.973712	29.672557	-12.682053	11.901237	-2.658770	-16.263363	-20.056245	-37.102434	0.204580	63.322704	-29.015401	2.983508	70.230042	18.769686	8.594631	-23.861227	
3.8300	-1.026824	4.270863	13.139740	-0.116454	1.028008	0.015712	8.909396	-12.686869	15.748166	-5.395812	0.112436	-1.916701	-32.667008	-73.516959	101.341151	-81.738739	-156.716187	28.113643	-11.336565	12.029121	-2.821137	-16.459472	-19.798149	-36.903023	0.342146	63.581878	-28.455667	3.257412	70.206308	18.507790	10.159736	-23.197365	
3.8400	-1.087245	4.289768	13.129354	-0.116404	1.028007	0.015728	9.130455	-12.770504	16.286450	-5.609690	0.458982	-2.095046	-31.310186	-73.151082	102.389183	-81.733694	-157.413569	26.687842	-10.125816	12.173497	-2.981523	-16.684335	-19.539300	-36.699583	0.492632	63.841341	-27.872187	3.495700	70.125096	18.271226	11.640486	-22.360991	
3.8500	-1.162267	4.325376	13.112814	-0.116339	1.027988	0.015733	9.344960	-12.861300	16.825097	-5.838409	0.827779	-2.269871	-29.971975	-72.750597	103.428076	-81.620125	-158.069131	25.340137	-9.007360	12.335617	-3.144656	-16.937590	-19.268229	-36.477523	0.658708	64.092147	-27.265501	3.703306	69.974172	18.041432	13.025955	-21.432592	
3.8600	-1.252047	4.373438	13.102915	-0.116277	1.027946	0.015722	9.557266	-12.961968	17.365034	-6.078663	1.204991	-2.440467	-28.659336	-72.323538	104.452476	-81.394524	-158.673013	24.096964	-8.005990	12.520468	-3.306155	-17.228502	-18.990614	-36.240472	0.843978	64.320791	-26.639616	3.878070	69.748177	17.807343	14.295462	-20.425052	
3.8700	-1.352526	4.436195	13.093656	-0.116213	1.027891	0.015695	9.767692	-13.082350	17.907408	-6.340241	1.592522	-2.602072	-27.425238	-71.880979	105.390656	-81.071514	-159.214748	22.949337	-7.109833	12.723913	-3.470826	-17.548227	-18.697540	-35.978698	1.046405	64.525504	-25.995758	4.018453	69.426761	17.573007	15.428038	-19.461173	
3.8800	-1.464038	4.505212	13.088343	-0.116158	1.027828	0.015653	9.978451	-13.220135	18.452533	-6.618129	1.983504	-2.755692	-26.241920	-71.422942	106.271788	-80.658938	-159.706551	21.871438	-6.290560	12.945307	-3.639562	-17.897077	-18.391716	-35.699636	1.264787	64.704835	-25.338157	4.137544	69.013536	17.334992	16.455746	-18.531118	
3.8900	-1.581350	4.579174	13.074315	-0.116104	1.027743	0.015592	10.188381	-13.365735	18.998608	-6.903371	2.377739	-2.905178	-25.087053	-70.946351	107.108010	-80.178821	-160.162306	20.821417	-5.497551	13.180523	-3.813519	-18.268081	-18.071755	-35.402293	1.496523	64.854875	-24.656860	4.260876	68.516431	17.094014	17.416944	-17.642035	
3.9000	-1.696438	4.645776	13.063091	-0.116078	1.027633	0.015519	10.411564	-13.509145	19.543413	-7.165879	2.723675	-3.054562	-23.809948	-70.439674	108.028680	-79.655830	-160.630790	19.720184	-4.657766	13.430851	-4.004234	-18.668395	-17.739890	-35.114328	1.740466	64.977023	-23.954185	4.418528	67.949290	16.826872	18.425354	-16.712865	
